<svg xmlns="http://www.w3.org/2000/svg" width="128" height="128" viewBox="0 0 128 128">
  <title>HOME</title>
  <g>
    <path d="M90.7,5.553H37.3A31.786,31.786,0,0,0,5.553,37.3V90.7a31.786,31.786,0,0,0,31.75,31.75H90.7a31.786,31.786,0,0,0,31.75-31.75V37.3A31.786,31.786,0,0,0,90.7,5.553ZM118.947,90.7a28.282,28.282,0,0,1-28.25,28.25H37.3A28.282,28.282,0,0,1,9.053,90.7V37.3A28.282,28.282,0,0,1,37.3,9.053H90.7a28.282,28.282,0,0,1,28.25,28.25Z"/>
    <path d="M94.324,67.331l-27.409-21.3a4.747,4.747,0,0,0-5.83,0L33.676,67.331a4.72,4.72,0,0,0-1.835,3.751v25.9a4.756,4.756,0,0,0,4.75,4.75H91.409a4.756,4.756,0,0,0,4.75-4.75v-25.9A4.72,4.72,0,0,0,94.324,67.331Zm-40.711,30.9V80.705a3.254,3.254,0,0,1,3.25-3.25H71.137a3.254,3.254,0,0,1,3.25,3.25V98.227Zm39.046-1.25a1.25,1.25,0,0,1-1.25,1.25H77.887V80.705a6.758,6.758,0,0,0-6.75-6.75H56.863a6.758,6.758,0,0,0-6.75,6.75V98.227H36.591a1.25,1.25,0,0,1-1.25-1.25v-25.9a1.241,1.241,0,0,1,.483-.987l27.409-21.3a1.249,1.249,0,0,1,1.534,0L92.176,70.1a1.241,1.241,0,0,1,.483.987Z"/>
    <path d="M108.067,60.449,96.16,50.808V35.89a3.755,3.755,0,0,0-3.75-3.75h-3a3.755,3.755,0,0,0-3.75,3.75v6.416L67.3,27.443a5.274,5.274,0,0,0-6.608,0L19.934,60.449a3.748,3.748,0,0,0-.556,5.275l1.887,2.329a3.744,3.744,0,0,0,5.275.556L64,38.278,101.461,68.61a3.747,3.747,0,0,0,5.273-.555l1.888-2.332A3.748,3.748,0,0,0,108.067,60.449ZM89.16,35.89a.242.242,0,0,1,.25-.25h3a.25.25,0,0,1,.25.25V47.974l-3.5-2.834ZM105.9,63.52l-1.888,2.333a.25.25,0,0,1-.35.037L65.1,34.666a1.751,1.751,0,0,0-2.2,0L24.338,65.889a.245.245,0,0,1-.184.054.238.238,0,0,1-.167-.09h0L22.1,63.521a.247.247,0,0,1-.055-.184.243.243,0,0,1,.092-.168L62.9,30.162a1.758,1.758,0,0,1,2.2,0l40.764,33.007A.249.249,0,0,1,105.9,63.52Z"/>
  </g>
</svg>
